IKResults
version=1
nRows=4
nColumns=67
inDegrees=yes

Units are S.I. units (second, meters, Newtons, ...)
Angles are in degrees.

endheader
time	pelvis_tilt	pelvis_list	pelvis_rotation	pelvis_tx	pelvis_ty	pelvis_tz	hip_flexion_r	hip_adduction_r	hip_rotation_r	knee_angle_r	knee_rot_r	knee_adduc_r	ankle_angle_r	ankle_rot_r	ankle_add_r	subtalar_angle_r	mtp_angle_r	mtp_rot_r	mtp_add_r	hip_flexion_l	hip_adduction_l	hip_rotation_l	knee_angle_l	knee_rot_l	knee_adduc_l	ankle_angle_l	ankle_rot_l	ankle_add_l	subtalar_angle_l	mtp_angle_l	mtp_rot_l	mtp_add_l	lumbar_extension	lumbar_bending	lumbar_rotation	neck_flexion	neck_lateral_bending	neck_rotation	arm_flex_r	arm_add_r	arm_rot_r	elbow_flex_r	elbow_rot_r	elbow_add_r	pro_sup_r	wrist_flex_r	wrist_adduc_r	wrist_rot_r	wrist_dev_r	hand_finger_flex_r	hand_finger_adduc_r	hand_finger_rot_r	arm_flex_l	arm_add_l	arm_rot_l	elbow_flex_l	elbow_rot_l	elbow_add_l	pro_sup_l	wrist_flex_l	wrist_adduc_l	wrist_rot_l	wrist_dev_l	hand_finger_flex_l	hand_finger_adduc_l	hand_finger_rot_l
      0.82500000	     13.87332373	      7.88216931	     -3.31995953	     -1.91257248	      0.76352908	      0.75435198	     12.80124827	     -8.88013193	      5.01641955	    -40.65254578	     -5.00000000	      4.96830867	      7.24827654	     -5.00000000	      5.00000000	     -6.52675685	     22.06219209	     -1.86627124	      1.99951909	    -17.79646415	     13.03849010	     -1.14654465	     -8.08141664	      5.00000000	      3.41129947	      8.28417769	     -4.19588966	     -1.02052827	     -5.39997668	     21.07250220	      2.00000000	      2.00000000	    -29.29526407	    -11.45955942	    -10.96001506	      0.00000000	      0.00000000	      0.00000000	      0.00000000	      0.00000000	      0.00000000	      0.00000000	      0.00000000	      0.00000000	     -0.00042092	      0.00000000	      0.00000000	      0.00000000	      0.00000000	      0.00000000	      0.00000000	      0.00000000	      0.00000000	      0.00000000	      0.00000000	      0.00000000	      0.00000000	      0.00000000	      0.00000000	      0.00000000	      0.00000000	      0.00000000	      0.00000000	      0.00000000	      0.00000000	      0.00000000
      0.83000000	     13.82460768	      7.97477434	     -3.19899033	     -1.90642042	      0.76273718	      0.75440176	     13.11457833	     -9.00013322	      4.87455062	    -38.83876848	     -5.00000000	      4.99970225	      7.27550055	     -5.00000000	      5.00000000	     -6.73279430	     22.06060216	     -1.86850726	      1.99933450	    -18.51843197	     13.08590458	     -0.94003269	     -7.67372784	      5.00000000	      3.39309260	      8.62173297	     -4.33910666	     -1.00752888	     -5.29646649	     21.04454404	      2.00000000	      2.00000000	    -29.30184546	    -11.49441246	    -11.22310958	      0.00000000	      0.00000000	      0.00000000	      0.00000000	      0.00000000	      0.00000000	      0.00000000	      0.00000000	      0.00000000	     -0.00042092	      0.00000000	      0.00000000	      0.00000000	      0.00000000	      0.00000000	      0.00000000	      0.00000000	      0.00000000	      0.00000000	      0.00000000	      0.00000000	      0.00000000	      0.00000000	      0.00000000	      0.00000000	      0.00000000	      0.00000000	      0.00000000	      0.00000000	      0.00000000	      0.00000000
      0.83500000	     13.79790542	      8.09762255	     -3.05114732	     -1.90038633	      0.76187708	      0.75440945	     13.38643914	     -9.16716589	      4.72389091	    -37.00538679	     -5.00000000	      4.99978249	      7.27743229	     -5.00000000	      5.00000000	     -6.97038717	     22.05656435	     -1.87232104	      1.99844182	    -19.20042890	     13.13437347	     -0.76747959	     -7.36437869	      5.00000000	      3.36447502	      8.91155940	     -4.46445156	     -0.98773426	     -5.20031378	     21.01733598	      2.00000000	      2.00000000	    -29.42268648	    -11.51610511	    -11.48708102	      0.00000000	      0.00000000	      0.00000000	      0.00000000	      0.00000000	      0.00000000	      0.00000000	      0.00000000	      0.00000000	     -0.00042092	      0.00000000	      0.00000000	      0.00000000	      0.00000000	      0.00000000	      0.00000000	      0.00000000	      0.00000000	      0.00000000	      0.00000000	      0.00000000	      0.00000000	      0.00000000	      0.00000000	      0.00000000	      0.00000000	      0.00000000	      0.00000000	      0.00000000	      0.00000000	      0.00000000
      0.84000000	     13.88110214	      8.16589988	     -2.84816353	     -1.89423612	      0.76110068	      0.75432451	     13.44093719	     -9.34832327	      4.39337292	    -35.06743131	     -5.00000000	      5.00000000	      7.18219794	     -5.00000000	      5.00000000	     -7.38023687	     22.04814766	     -1.88079182	      1.99669940	    -20.05659271	     13.11820805	     -0.50577972	     -6.99372470	      5.00000000	      3.35009729	      9.21357142	     -4.65114700	     -0.93687486	     -5.03248614	     20.97157796	      2.00000000	      2.00000000	    -29.66839305	    -11.43015350	    -11.87250426	      0.00000000	      0.00000000	      0.00000000	      0.00000000	      0.00000000	      0.00000000	      0.00000000	      0.00000000	      0.00000000	     -0.00042092	      0.00000000	      0.00000000	      0.00000000	      0.00000000	      0.00000000	      0.00000000	      0.00000000	      0.00000000	      0.00000000	      0.00000000	      0.00000000	      0.00000000	      0.00000000	      0.00000000	      0.00000000	      0.00000000	      0.00000000	      0.00000000	      0.00000000	      0.00000000	      0.00000000
